# xmcd
#
# Track frame offsets: 
#        150
#        12555
#        22485
#        33192
#        46995
#        59920
#        84480
#        96047
#        109332
#        121090
#        141102
#        161090
#        180625
#
# Disc length: 2782 seconds
#
# Revision: 4
# Processed by: cddbd v1.5.2PL0 Copyright (c) Steve Scherf et al.
# Submitted via: ExactAudioCopyFreeDBPlugin 1.0
#
DISCID=b40adc0d
DTITLE=Willie Dixon - The Original Wang Dang Doodle - The Chess Record
DTITLE=ings and More
DYEAR=1995
DGENRE=Blues
TTITLE0=Wang Dang Doodle
TTITLE1=So Long
TTITLE2=Violent Love
TTITLE3=Walking the Blues
TTITLE4=Crazy for My Baby
TTITLE5=This Pain in My Heart
TTITLE6=All the Time
TTITLE7=Tail Dragger
TTITLE8=Wrinkles
TTITLE9=Weak Brain, Narrow Mind
TTITLE10=It Don't Make Sense (You Can't Make Peace)
TTITLE11=I Just Want to Make Love to You
TTITLE12=Dusting Off the Bass
EXTD=YEAR: 1995
EXTT0=
EXTT1=
EXTT2=
EXTT3=
EXTT4=
EXTT5=
EXTT6=
EXTT7=
EXTT8=
EXTT9=
EXTT10=
EXTT11=
EXTT12=
PLAYORDER=
